<?xml version="1.0" encoding="UTF-8"?>
<svg xmlns="http://www.w3.org/2000/svg" width="200" height="60" viewBox="0 0 200 60" aria-hidden="true">
<!--
  Design Studio v4 — Amber Futuristic Segmented Display
  Clean sharp vector style, not retro 7-seg but stylized modern/futuristic with angled sharp segments.
  Super clean, high-tech look with pseudo-3D bevel on segments + amber glow.
  Supports glow via layered duplicates (CSS filter: drop-shadow or inline opacity).
  Theming: #ffd54f amber, with dark off-state.
  Example: 4-digit + colon for timecodes or values. Scalable.
  Use individual segments or full digits.
-->
  <defs>
    <linearGradient id="segBevel" gradientTransform="rotate(135)" x1="0%" y1="0%" x2="100%" y2="100%">
      <stop offset="0%" stop-color="#c9a63d"/>
      <stop offset="50%" stop-color="#ffd54f"/>
      <stop offset="100%" stop-color="#b8860b"/>
    </linearGradient>
    <filter id="amberGlow" x="-50%" y="-50%" width="200%" height="200%">
      <feGaussianBlur in="SourceGraphic" stdDeviation="1.5" result="blur"/>
      <feMerge>
        <feMergeNode in="blur"/>
        <feMergeNode in="SourceGraphic"/>
      </feMerge>
    </filter>
  </defs>

  <!-- Sample 4-digit display e.g. "12:34" or intensity "100%" - futuristic sharp segments -->

  <!-- Digit 1 (1) -->
  <g id="digit1" class="segment-digit" fill="#ffd54f" stroke="#8a6f1a" stroke-width="0.5">
    <!-- Sharp top segment -->
    <polygon points="12,8 18,8 20,12 10,12" />
    <!-- Upper right -->
    <polygon points="18,10 20,14 18,30 16,26" />
    <!-- Lower right -->
    <polygon points="18,32 20,36 18,50 16,46" />
    <!-- Bottom -->
    <polygon points="10,48 20,48 18,52 10,52" />
    <!-- Other segments off or partial for '1' -->
  </g>

  <!-- Digit 2 (2) - stylized sharp -->
  <g id="digit2" transform="translate(30,0)" class="segment-digit" fill="#ffd54f" stroke="#8a6f1a" stroke-width="0.5">
    <polygon points="2,8 18,8 20,12 0,12" /> <!-- top -->
    <polygon points="18,10 20,14 18,26 16,22" /> <!-- upper right -->
    <polygon points="2,24 18,24 20,28 0,28" /> <!-- middle sharp -->
    <polygon points="0,30 2,34 0,48  -2,44" /> <!-- lower left -->
    <polygon points="0,48 18,48 20,52 2,52" /> <!-- bottom -->
    <polygon points="18,30 20,34 18,48 16,44" /> <!-- lower right -->
  </g>

  <!-- Colon -->
  <g fill="#ffd54f" filter="url(#amberGlow)">
    <circle cx="55" cy="20" r="2" />
    <circle cx="55" cy="40" r="2" />
  </g>

  <!-- Digit 3 (3) -->
  <g id="digit3" transform="translate(60,0)" class="segment-digit" fill="#ffd54f" stroke="#8a6f1a" stroke-width="0.5">
    <polygon points="2,8 18,8 20,12 0,12" />
    <polygon points="18,10 20,14 18,26 16,22" />
    <polygon points="2,24 18,24 20,28 0,28" />
    <polygon points="18,30 20,34 18,48 16,44" />
    <polygon points="2,48 18,48 20,52 0,52" />
  </g>

  <!-- Digit 4 (4) -->
  <g id="digit4" transform="translate(90,0)" class="segment-digit" fill="#ffd54f" stroke="#8a6f1a" stroke-width="0.5">
    <polygon points="0,10 2,14 0,28 -2,24" /> <!-- upper left off for demo -->
    <polygon points="18,10 20,14 18,26 16,22" />
    <polygon points="2,24 18,24 20,28 0,28" />
    <polygon points="18,30 20,34 18,48 16,44" />
  </g>

  <!-- Glow layer example for active segments (use CSS or duplicate with filter) -->
  <g id="glow-overlay" fill="#ffd54f" opacity="0.3" filter="url(#amberGlow)">
    <!-- Overlay for glow on '2' and '3' etc. -->
  </g>

  <!-- Usage note: For full set, define <symbol> per digit or segment. Off state: fill="#3a2a00" or opacity 0.2 -->
</svg>
