<?xml version="1.0" encoding="UTF-8"?>
<svg xmlns="http://www.w3.org/2000/svg" width="160" height="160" viewBox="0 0 160 160" aria-hidden="true">
/*
  Design Studio v4 — Volume knob assembly (housing + ticks + needle)
  Composite reference for sub-panel polish. Layers:
    .knob-decal (optional radial speedometer behind)
    .knob-housing / .knob-ticks / .knob-needle as separate files in production.
  Rotate .knob-needle group for value; theme via CSS on .theme-stroke.
*/
  <defs>
    <linearGradient id="vkHousingBevel" gradientTransform="rotate(135)" x1="0%" y1="0%" x2="100%" y2="100%">
      <stop offset="0%" stop-color="#3a3a5a"/>
      <stop offset="45%" stop-color="#1d1f6e"/>
      <stop offset="55%" stop-color="#12001f"/>
      <stop offset="100%" stop-color="#0a0014"/>
    </linearGradient>
    <linearGradient id="vkWell" gradientTransform="rotate(135)" x1="30%" y1="30%" x2="70%" y2="70%">
      <stop offset="0%" stop-color="#0f0018"/>
      <stop offset="100%" stop-color="#12001f"/>
    </linearGradient>
  </defs>
  <g id="knob-decal-hint" opacity="0.25">
    <line x1="80" y1="80" x2="80" y2="14" stroke="#ffd54f" stroke-width="1" transform="rotate(0 80 80)"/>
    <line x1="80" y1="80" x2="80" y2="14" stroke="#ffd54f" stroke-width="1" transform="rotate(45 80 80)"/>
    <line x1="80" y1="80" x2="80" y2="14" stroke="#ffd54f" stroke-width="1" transform="rotate(90 80 80)"/>
    <line x1="80" y1="80" x2="80" y2="14" stroke="#ffd54f" stroke-width="1" transform="rotate(135 80 80)"/>
  </g>
  <circle cx="80" cy="80" r="72" fill="none" stroke="#000000" stroke-width="9" opacity="0.6"/>
  <circle cx="80" cy="80" r="68" fill="url(#vkHousingBevel)" stroke="#2a2a44" stroke-width="3"/>
  <circle cx="80" cy="80" r="52" fill="url(#vkWell)" stroke="#0a0014" stroke-width="2"/>
  <circle cx="80" cy="80" r="65" fill="none" stroke="#ffffff" stroke-width="1.5" opacity="0.06"/>
  <g id="knob-ticks" fill="none" stroke="#ffd54f" stroke-linecap="round" class="theme-stroke">
    <g stroke-width="3.5">
      <line x1="80" y1="18" x2="80" y2="30"/>
      <line x1="80" y1="18" x2="80" y2="30" transform="rotate(30 80 80)"/>
      <line x1="80" y1="18" x2="80" y2="30" transform="rotate(60 80 80)"/>
      <line x1="80" y1="18" x2="80" y2="30" transform="rotate(90 80 80)"/>
      <line x1="80" y1="18" x2="80" y2="30" transform="rotate(120 80 80)"/>
      <line x1="80" y1="18" x2="80" y2="30" transform="rotate(150 80 80)"/>
      <line x1="80" y1="18" x2="80" y2="30" transform="rotate(180 80 80)"/>
      <line x1="80" y1="18" x2="80" y2="30" transform="rotate(210 80 80)"/>
      <line x1="80" y1="18" x2="80" y2="30" transform="rotate(240 80 80)"/>
      <line x1="80" y1="18" x2="80" y2="30" transform="rotate(270 80 80)"/>
      <line x1="80" y1="18" x2="80" y2="30" transform="rotate(300 80 80)"/>
      <line x1="80" y1="18" x2="80" y2="30" transform="rotate(330 80 80)"/>
    </g>
  </g>
  <g id="knob-needle" class="theme-stroke" transform="rotate(-30 80 80)">
    <line x1="80" y1="80" x2="80" y2="28" stroke="#ffd54f" stroke-width="3.5" stroke-linecap="round"/>
    <polygon points="80,24 76,34 84,34" fill="#ffd54f" stroke="#8a6f1a" stroke-width="0.5"/>
  </g>
  <circle cx="80" cy="80" r="7" fill="#12001f" stroke="#3a3a5a" stroke-width="1.5"/>
</svg>