<?xml version="1.0" encoding="UTF-8"?>
<svg xmlns="http://www.w3.org/2000/svg" width="32" height="32" viewBox="0 0 32 32" aria-hidden="true">
<!--
  Design Studio v4 — Center background within frame
  CHANGED: frame-icon-32 gains four inward arrows and a small focal target.
  WHY: the precision reset should communicate centering before its tooltip is read.
-->
  <path id="frame" d="M7 4 L25 4 C26.7 4 28 5.3 28 7 L28 25 C28 26.7 26.7 28 25 28 L7 28 C5.3 28 4 26.7 4 25 L4 7 C4 5.3 5.3 4 7 4" fill="none" stroke="#ffd54f" stroke-width="1.7" stroke-linejoin="round"/>
  <path id="inward-arrows" d="M8 16 L13 16 M10 13 L13 16 L10 19 M24 16 L19 16 M22 13 L19 16 L22 19 M16 8 L16 13 M13 10 L16 13 L19 10 M16 24 L16 19 M13 22 L16 19 L19 22" fill="none" stroke="#ffd54f" stroke-width="1.7" stroke-linecap="round" stroke-linejoin="round"/>
  <path id="focal-target" d="M14.5 14.5 L17.5 14.5 L17.5 17.5 L14.5 17.5 L14.5 14.5" fill="#ffd54f"/>
</svg>
