<?xml version="1.0" encoding="UTF-8"?>
<svg xmlns="http://www.w3.org/2000/svg" width="96" height="96" viewBox="0 0 96 96" aria-hidden="true">
/*
  Design Studio v4 — 3x3 Position / Alignment Grid Widget
  Used for background layout position and (future) bar alignment variants.
  Active cell can be highlighted with theme color.

  NOTE FOR GIMP: Use CSS-style /* */ comments (not XML <!-- -->) for header docs
  in SVGs. GIMP's parser can be strict about double hyphens inside XML comments.
  Place the comments INSIDE the <svg> ... </svg> tags.
*/
  <defs>
    <linearGradient id="cellBg" x1="0%" y1="0%" x2="0%" y2="100%">
      <stop offset="0%" stop-color="#1d1f6e"/>
      <stop offset="100%" stop-color="#12001f"/>
    </linearGradient>
  </defs>

  /* Outer frame with depth */
  <rect x="4" y="4" width="88" height="88" rx="4" ry="4"
        fill="#0a0014" stroke="#2a2a44" stroke-width="2"/>

  /* 3x3 cells */
  <g fill="url(#cellBg)" stroke="#3a3a5a" stroke-width="1">
    /* row 1 */
    <rect x="10" y="10" width="22" height="22" rx="2"/>
    <rect x="37" y="10" width="22" height="22" rx="2"/>
    <rect x="64" y="10" width="22" height="22" rx="2"/>
    /* row 2 */
    <rect x="10" y="37" width="22" height="22" rx="2"/>
    <rect x="37" y="37" width="22" height="22" rx="2"/>
    <rect x="64" y="37" width="22" height="22" rx="2"/>
    /* row 3 */
    <rect x="10" y="64" width="22" height="22" rx="2"/>
    <rect x="37" y="64" width="22" height="22" rx="2"/>
    <rect x="64" y="64" width="22" height="22" rx="2"/>
  </g>

  /* Example active cell (top-left) - theme with amber */
  <rect x="10" y="10" width="22" height="22" rx="2"
        fill="none" stroke="#ffd54f" stroke-width="2.5" opacity="0.85"/>

  /* Center dot in active cell */
  <circle cx="21" cy="21" r="3" fill="#ffd54f" opacity="0.9"/>
</svg>
